<?xml version="1.0" encoding="UTF-8" standalone="no"?>
<!-- Created with Inkscape (http://www.inkscape.org/) -->

<svg
   xmlns:dc="http://purl.org/dc/elements/1.1/"
   xmlns:cc="http://creativecommons.org/ns#"
   xmlns:rdf="http://www.w3.org/1999/02/22-rdf-syntax-ns#"
   xmlns:svg="http://www.w3.org/2000/svg"
   xmlns="http://www.w3.org/2000/svg"
   xmlns:sodipodi="http://sodipodi.sourceforge.net/DTD/sodipodi-0.dtd"
   xmlns:inkscape="http://www.inkscape.org/namespaces/inkscape"
   width="744.09448819"
   height="1052.3622047"
   id="svg2"
   version="1.1"
   inkscape:version="0.48.4 r9939"
   sodipodi:docname="KnightBodyFront1.svg"
   inkscape:export-filename="C:\Users\Donald\Documents\Save The Princess\Pictures\KnightBodyFront1.png"
   inkscape:export-xdpi="90"
   inkscape:export-ydpi="90">
  <defs
     id="defs4" />
  <sodipodi:namedview
     id="base"
     pagecolor="#ffffff"
     bordercolor="#666666"
     borderopacity="1.0"
     inkscape:pageopacity="0.0"
     inkscape:pageshadow="2"
     inkscape:zoom="2"
     inkscape:cx="377.92554"
     inkscape:cy="591.85292"
     inkscape:document-units="px"
     inkscape:current-layer="layer1"
     showgrid="false"
     inkscape:window-width="944"
     inkscape:window-height="1002"
     inkscape:window-x="0"
     inkscape:window-y="0"
     inkscape:window-maximized="0" />
  <metadata
     id="metadata7">
    <rdf:RDF>
      <cc:Work
         rdf:about="">
        <dc:format>image/svg+xml</dc:format>
        <dc:type
           rdf:resource="http://purl.org/dc/dcmitype/StillImage" />
        <dc:title></dc:title>
      </cc:Work>
    </rdf:RDF>
  </metadata>
  <g
     inkscape:label="Layer 1"
     inkscape:groupmode="layer"
     id="layer1">
    <path
       style="fill:#808080;stroke:#000000;stroke-width:1px;stroke-linecap:butt;stroke-linejoin:miter;stroke-opacity:1"
       d="M 274.28571,340.93362 C 339.37982,325.53518 419.04188,330.24306 480,332.36218 c 45.35977,45.35978 10.06645,239.93355 -30,251.42858 -9.77792,2.80528 -36.4332,14.28571 -50,14.28571 -121.67607,0 -151.65835,-127.41107 -125.71429,-257.14285 z"
       id="path2997"
       inkscape:connector-curvature="0"
       sodipodi:nodetypes="ccssc" />
    <path
       style="fill:#800000;stroke:#000000;stroke-width:1px;stroke-linecap:butt;stroke-linejoin:miter;stroke-opacity:1"
       d="m 385.71429,494.8979 c 27.52339,4.19072 75.20399,-39.53912 47.14284,-88.57143 -29.52381,0 -63.33332,-1.42857 -92.85713,-1.42857 -7.33955,22.37521 -15.80424,69.83936 35.85714,90.75 29.63592,-0.92559 -17.70658,0.35008 9.85715,-0.75 z"
       id="path2999"
       inkscape:connector-curvature="0"
       sodipodi:nodetypes="ccccc" />
    <path
       style="fill:#ff6600;stroke:#000000;stroke-width:1px;stroke-linecap:butt;stroke-linejoin:miter;stroke-opacity:1"
       d="m 403.5,418.36218 c -1.49905,0.39543 -26.20078,3.20729 -33.25,-1.75 -12.95448,-9.11011 -9.07592,29.61971 -6.5,38.25 1.54094,5.1627 26.16546,11.75091 35.5,4.75 4.27984,-3.20988 3.29739,-5.29739 6.75,-8.75 2.37047,-2.37047 1.75,-4.98592 1.75,-9.75 0,-18.0748 8.10016,-17.80993 -4.25,-22.75 z"
       id="path3005"
       inkscape:connector-curvature="0"
       sodipodi:nodetypes="csssssc" />
    <path
       style="fill:#ffff00;stroke:#000000;stroke-width:1px;stroke-linecap:butt;stroke-linejoin:miter;stroke-opacity:1"
       d="m 387.75,427.11218 c -4.9231,-1.05536 -14.75912,-1.99088 -17.5,0.75 -1.35151,1.35151 -1.072,6.57201 -2.5,8 -15.66173,15.66173 33,39.44406 33,11.5 0,-5.65645 -1.03762,-10.84071 -4.25,-13.25 -3.29827,-2.4737 -3.24105,-4.99674 -8.75,-7 z"
       id="path3001"
       inkscape:connector-curvature="0" />
    <path
       sodipodi:type="arc"
       style="fill:#000000"
       id="path3007"
       sodipodi:cx="374.75"
       sodipodi:cy="437.48718"
       sodipodi:rx="2.5"
       sodipodi:ry="2.625"
       d="m 376.9443,436.22935 a 2.5,2.625 0 1 1 -0.0876,-0.1555"
       sodipodi:start="5.7834706"
       sodipodi:end="11.99782"
       sodipodi:open="true" />
    <path
       sodipodi:type="arc"
       style="fill:#000000"
       id="path3009"
       sodipodi:cx="387.375"
       sodipodi:cy="439.86218"
       sodipodi:rx="3.125"
       sodipodi:ry="3"
       d="m 390.11787,438.42466 a 3.125,3 0 1 1 -0.10949,-0.17771"
       sodipodi:start="5.7834706"
       sodipodi:end="11.99782"
       sodipodi:open="true"
       transform="translate(-0.75,-2.5)" />
  </g>
</svg>
